<mxfile host="app.diagrams.net" modified="2024-05-19T08:00:36.127Z" agent="Mozilla/5.0 (Windows NT 10.0; Win64; x64) AppleWebKit/537.36 (KHTML, like Gecko) Chrome/124.0.0.0 Safari/537.36 Edg/124.0.0.0" etag="EiFRs7wfzUFWQ5a16wCY" version="24.4.0" type="github">
  <diagram name="第 1 页" id="leCYCpFz-L0AvSXM7aaV">
    <mxGraphModel dx="1173" dy="631" grid="1" gridSize="10" guides="1" tooltips="1" connect="1" arrows="1" fold="1" page="1" pageScale="1" pageWidth="1169" pageHeight="827" math="0" shadow="0">
      <root>
        <mxCell id="0" />
        <mxCell id="1" parent="0" />
        <mxCell id="pFO_m2VJBk1OrtZpRaoa-26" value="" style="rounded=1;whiteSpace=wrap;html=1;dashed=1;" parent="1" vertex="1">
          <mxGeometry x="260" y="130" width="680" height="330" as="geometry" />
        </mxCell>
        <mxCell id="pFO_m2VJBk1OrtZpRaoa-2" style="edgeStyle=orthogonalEdgeStyle;rounded=0;orthogonalLoop=1;jettySize=auto;html=1;exitX=1;exitY=0.5;exitDx=0;exitDy=0;entryX=0;entryY=0.5;entryDx=0;entryDy=0;" parent="1" source="pFO_m2VJBk1OrtZpRaoa-1" target="pFO_m2VJBk1OrtZpRaoa-4" edge="1">
          <mxGeometry relative="1" as="geometry">
            <mxPoint x="280" y="295" as="targetPoint" />
          </mxGeometry>
        </mxCell>
        <mxCell id="pFO_m2VJBk1OrtZpRaoa-1" value="&lt;font style=&quot;font-size: 16px;&quot;&gt;Node Embedding&lt;/font&gt;" style="rounded=1;whiteSpace=wrap;html=1;fillColor=#fad7ac;strokeColor=#b46504;" parent="1" vertex="1">
          <mxGeometry x="120" y="260" width="120" height="70" as="geometry" />
        </mxCell>
        <mxCell id="pFO_m2VJBk1OrtZpRaoa-6" style="edgeStyle=orthogonalEdgeStyle;rounded=0;orthogonalLoop=1;jettySize=auto;html=1;exitX=1;exitY=0.5;exitDx=0;exitDy=0;" parent="1" source="pFO_m2VJBk1OrtZpRaoa-4" target="pFO_m2VJBk1OrtZpRaoa-5" edge="1">
          <mxGeometry relative="1" as="geometry" />
        </mxCell>
        <mxCell id="pFO_m2VJBk1OrtZpRaoa-25" style="edgeStyle=orthogonalEdgeStyle;rounded=0;orthogonalLoop=1;jettySize=auto;html=1;exitX=0.5;exitY=1;exitDx=0;exitDy=0;entryX=0;entryY=0.5;entryDx=0;entryDy=0;" parent="1" source="pFO_m2VJBk1OrtZpRaoa-4" target="pFO_m2VJBk1OrtZpRaoa-22" edge="1">
          <mxGeometry relative="1" as="geometry" />
        </mxCell>
        <mxCell id="pFO_m2VJBk1OrtZpRaoa-4" value="&lt;font style=&quot;font-size: 16px;&quot;&gt;GCN&lt;/font&gt;" style="rounded=1;whiteSpace=wrap;html=1;fillColor=#dae8fc;gradientColor=#7ea6e0;strokeColor=#6c8ebf;" parent="1" vertex="1">
          <mxGeometry x="280" y="260" width="120" height="70" as="geometry" />
        </mxCell>
        <mxCell id="pFO_m2VJBk1OrtZpRaoa-12" style="edgeStyle=orthogonalEdgeStyle;rounded=0;orthogonalLoop=1;jettySize=auto;html=1;exitX=1;exitY=0.5;exitDx=0;exitDy=0;" parent="1" source="pFO_m2VJBk1OrtZpRaoa-5" edge="1">
          <mxGeometry relative="1" as="geometry">
            <mxPoint x="600" y="295" as="targetPoint" />
          </mxGeometry>
        </mxCell>
        <mxCell id="pFO_m2VJBk1OrtZpRaoa-5" value="&lt;font style=&quot;font-size: 16px;&quot;&gt;GCN&lt;/font&gt;" style="rounded=1;whiteSpace=wrap;html=1;fillColor=#dae8fc;gradientColor=#7ea6e0;strokeColor=#6c8ebf;" parent="1" vertex="1">
          <mxGeometry x="440" y="260" width="120" height="70" as="geometry" />
        </mxCell>
        <mxCell id="pFO_m2VJBk1OrtZpRaoa-14" value="..." style="text;html=1;align=center;verticalAlign=middle;resizable=0;points=[];autosize=1;strokeColor=none;fillColor=none;fontSize=20;" parent="1" vertex="1">
          <mxGeometry x="600" y="275" width="40" height="40" as="geometry" />
        </mxCell>
        <mxCell id="pFO_m2VJBk1OrtZpRaoa-16" style="edgeStyle=orthogonalEdgeStyle;rounded=0;orthogonalLoop=1;jettySize=auto;html=1;exitX=1;exitY=0.5;exitDx=0;exitDy=0;" parent="1" edge="1">
          <mxGeometry relative="1" as="geometry">
            <mxPoint x="680" y="294.5" as="targetPoint" />
            <mxPoint x="640" y="294.5" as="sourcePoint" />
            <Array as="points">
              <mxPoint x="660" y="295" />
              <mxPoint x="660" y="295" />
            </Array>
          </mxGeometry>
        </mxCell>
        <mxCell id="pFO_m2VJBk1OrtZpRaoa-18" style="edgeStyle=orthogonalEdgeStyle;rounded=0;orthogonalLoop=1;jettySize=auto;html=1;exitX=1;exitY=0.5;exitDx=0;exitDy=0;" parent="1" source="pFO_m2VJBk1OrtZpRaoa-17" edge="1">
          <mxGeometry relative="1" as="geometry">
            <mxPoint x="840" y="295" as="targetPoint" />
          </mxGeometry>
        </mxCell>
        <mxCell id="pFO_m2VJBk1OrtZpRaoa-24" style="edgeStyle=orthogonalEdgeStyle;rounded=0;orthogonalLoop=1;jettySize=auto;html=1;exitX=0.5;exitY=1;exitDx=0;exitDy=0;entryX=0;entryY=0.5;entryDx=0;entryDy=0;" parent="1" source="pFO_m2VJBk1OrtZpRaoa-17" target="pFO_m2VJBk1OrtZpRaoa-22" edge="1">
          <mxGeometry relative="1" as="geometry" />
        </mxCell>
        <mxCell id="pFO_m2VJBk1OrtZpRaoa-17" value="&lt;font style=&quot;font-size: 16px;&quot;&gt;Final Embedding&lt;/font&gt;" style="rounded=1;whiteSpace=wrap;html=1;fillColor=#dae8fc;gradientColor=#7ea6e0;strokeColor=#6c8ebf;" parent="1" vertex="1">
          <mxGeometry x="680" y="260" width="120" height="70" as="geometry" />
        </mxCell>
        <mxCell id="pFO_m2VJBk1OrtZpRaoa-19" value="" style="ellipse;whiteSpace=wrap;html=1;aspect=fixed;fillColor=#d5e8d4;strokeColor=#82b366;gradientColor=#97d077;" parent="1" vertex="1">
          <mxGeometry x="840" y="275" width="40" height="40" as="geometry" />
        </mxCell>
        <mxCell id="pFO_m2VJBk1OrtZpRaoa-20" value="&lt;font style=&quot;font-size: 14px;&quot;&gt;Recommended&amp;nbsp;&lt;/font&gt;&lt;div style=&quot;font-size: 14px;&quot;&gt;&lt;font style=&quot;font-size: 14px;&quot;&gt;Tasks Loss&lt;/font&gt;&lt;/div&gt;" style="text;html=1;align=center;verticalAlign=middle;resizable=0;points=[];autosize=1;strokeColor=none;fillColor=none;" parent="1" vertex="1">
          <mxGeometry x="800" y="235" width="120" height="50" as="geometry" />
        </mxCell>
        <mxCell id="pFO_m2VJBk1OrtZpRaoa-22" value="" style="ellipse;whiteSpace=wrap;html=1;aspect=fixed;fillColor=#f5f5f5;strokeColor=#666666;gradientColor=#b3b3b3;" parent="1" vertex="1">
          <mxGeometry x="840" y="394" width="40" height="40" as="geometry" />
        </mxCell>
        <mxCell id="pFO_m2VJBk1OrtZpRaoa-23" value="&lt;font style=&quot;font-size: 14px;&quot;&gt;Comparative&amp;nbsp;&lt;/font&gt;&lt;div style=&quot;font-size: 14px;&quot;&gt;&lt;font style=&quot;font-size: 14px;&quot;&gt;Tasks Loss&lt;/font&gt;&lt;/div&gt;" style="text;html=1;align=center;verticalAlign=middle;resizable=0;points=[];autosize=1;strokeColor=none;fillColor=none;" parent="1" vertex="1">
          <mxGeometry x="805" y="349" width="110" height="50" as="geometry" />
        </mxCell>
        <mxCell id="zdToV_WP1aJ2LC-qe-At-4" style="edgeStyle=orthogonalEdgeStyle;rounded=0;orthogonalLoop=1;jettySize=auto;html=1;exitX=0.5;exitY=1;exitDx=0;exitDy=0;entryX=0.5;entryY=0;entryDx=0;entryDy=0;" edge="1" parent="1" source="zdToV_WP1aJ2LC-qe-At-2" target="pFO_m2VJBk1OrtZpRaoa-4">
          <mxGeometry relative="1" as="geometry" />
        </mxCell>
        <mxCell id="zdToV_WP1aJ2LC-qe-At-2" value="&lt;font style=&quot;font-size: 16px;&quot;&gt;Noise&lt;/font&gt;" style="rounded=1;whiteSpace=wrap;html=1;fillColor=#fad9d5;strokeColor=#ae4132;" vertex="1" parent="1">
          <mxGeometry x="280" y="170" width="120" height="60" as="geometry" />
        </mxCell>
        <mxCell id="zdToV_WP1aJ2LC-qe-At-5" style="edgeStyle=orthogonalEdgeStyle;rounded=0;orthogonalLoop=1;jettySize=auto;html=1;" edge="1" parent="1" source="zdToV_WP1aJ2LC-qe-At-3" target="pFO_m2VJBk1OrtZpRaoa-5">
          <mxGeometry relative="1" as="geometry" />
        </mxCell>
        <mxCell id="zdToV_WP1aJ2LC-qe-At-3" value="&lt;font style=&quot;font-size: 16px;&quot;&gt;Noise&lt;/font&gt;" style="rounded=1;whiteSpace=wrap;html=1;fillColor=#fad9d5;strokeColor=#ae4132;" vertex="1" parent="1">
          <mxGeometry x="440" y="170" width="120" height="60" as="geometry" />
        </mxCell>
      </root>
    </mxGraphModel>
  </diagram>
</mxfile>
